<svg id="Layer_1" data-name="Layer 1" xmlns="http://www.w3.org/2000/svg" viewBox="0 0 175.59 197.81"><defs><style>.cls-1{fill:#fff;}.cls-2{fill:#f4f4f4;}.cls-3{opacity:0.9;}.cls-4{fill:#e8e8ed;}.cls-5{fill:#e3e3e5;}</style></defs><title>ENvision white only -1</title><path class="cls-1" d="M131.3,163.36H56.42L19,100.1,56.42,36.83H131.3l37.44,63.27Zm-74.42-.78h74l37-62.48-37-62.49h-74l-37,62.49Z" transform="translate(-6.07 -1.19)"/><path class="cls-1" d="M128.9,167.19l-77.08-3.94-35-67.1L58.82,33l77.07,3.94,35,67.1Zm-76.57-4.7,76.15,3.89L170,104,135.39,37.7,59.24,33.81,17.71,96.2Z" transform="translate(-6.07 -1.19)"/><path class="cls-1" d="M126.22,171,47.1,162.89,14.74,92,61.5,29.19l79.12,8.11L173,108.21Zm-78.57-8.85,78.19,8,46.21-62.06L140.07,38,61.88,30,15.67,92.08Z" transform="translate(-6.07 -1.19)"/><path class="cls-1" d="M123.24,174.78l-81-12.51L12.87,87.58l51.6-62.17,81,12.51,29.39,74.69Zm-80.4-13.22,80.07,12.38,51-61.47L144.88,38.63,64.81,26.25l-51,61.47Z" transform="translate(-6.07 -1.19)"/><path class="cls-1" d="M120,178.52,37.3,161.38,11.19,83,67.74,21.67l82.67,17.14,26.12,78.43ZM37.93,160.7l81.76,17,55.93-60.61L149.79,39.49,68,22.53,12.09,83.14Z" transform="translate(-6.07 -1.19)"/><path class="cls-1" d="M116.41,182.2l-84.15-22L9.71,78.1,71.31,18l84.15,22L178,122.09Zm-83.5-22.64,83.26,21.76,60.94-59.46L154.8,40.63,71.55,18.87,10.6,78.33Z" transform="translate(-6.07 -1.19)"/><path class="cls-1" d="M112.53,185.79,27.12,158.72,8.45,73,75.19,14.4l85.4,27.07,18.67,85.7ZM27.81,158.11l84.53,26.8,66-58L159.9,42.08,75.38,15.28l-66,58Z" transform="translate(-6.07 -1.19)"/><path class="cls-1" d="M108.34,189.29l-.22-.08-86.2-32.28L7.44,67.73,79.38,10.9l.22.08,86.19,32.28,14.48,89.2ZM22.65,156.36l85.54,32,71.22-56.27-14.34-88.3-85.55-32L8.31,68.06Z" transform="translate(-6.07 -1.19)"/><path class="cls-1" d="M103.83,192.67,16.67,154.81,6.7,62.23,83.89,7.52l87.16,37.86L181,138ZM17.42,154.28l86.31,37.49,76.44-54.18L170.3,45.91,84,8.42,7.54,62.6Z" transform="translate(-6.07 -1.19)"/><path class="cls-1" d="M99,195.91,11.38,152.35v-.22L6.23,56.53,88.71,4.28l87.63,43.56v.22l5.14,95.6Zm-86.85-44L99,195l81.7-51.77-5.1-94.91L88.76,5.18,7.06,57Z" transform="translate(-6.07 -1.19)"/><path class="cls-1" d="M93.86,199,6.07,149.55V50.64L93.86,1.19l87.79,49.45v98.91Zm-87-49.91,87,49,87-49v-98l-87-49-87,49Z" transform="translate(-6.07 -1.19)"/><path class="cls-1" d="M64,84.07a40.09,40.09,0,0,1-5.54-6.6,38.69,38.69,0,0,0-6.83,22.63A39.24,39.24,0,0,0,64,129.25a41.75,41.75,0,0,0,29.88,12.06,41.75,41.75,0,0,0,29.88-12.06,39.24,39.24,0,0,0,12.37-29.15,38.76,38.76,0,0,0-6.83-22.63,43.87,43.87,0,0,1-5.54,6.6l-.9.88a30.58,30.58,0,0,1,4.44,16.34A30.16,30.16,0,0,1,122,118.88,33.61,33.61,0,0,1,94.37,133.4,32.17,32.17,0,0,1,71.06,124a32.78,32.78,0,0,1-4.38-5.15,32.08,32.08,0,0,1-1.16-33.36c-.51-.51-1-1-1.54-1.45Z" transform="translate(-6.07 -1.19)"/><path class="cls-1" d="M58.44,77.47A40.09,40.09,0,0,0,64,84.07c.51.44,1,.94,1.54,1.45a35,35,0,0,1,5.54-7,32,32,0,0,1,23.31-9.42,32.07,32.07,0,0,1,23.25,9.42A34.93,34.93,0,0,1,122.84,85l.9-.88a43.87,43.87,0,0,0,5.54-6.6,43.88,43.88,0,0,0-5.54-6.53A41.26,41.26,0,0,0,93.86,58.88,41.26,41.26,0,0,0,64,70.94a40.07,40.07,0,0,0-5.54,6.53Z" transform="translate(-6.07 -1.19)"/><path class="cls-2" d="M70,88.72l-.13.19a40.9,40.9,0,0,0,24,7.23,41.39,41.39,0,0,0,24.67-7.67h.06l-.19-.25a28.88,28.88,0,0,0-4.38-5.4A27.13,27.13,0,0,0,94.37,74.9a27.17,27.17,0,0,0-19.7,7.92A28.33,28.33,0,0,0,70,88.72Z" transform="translate(-6.07 -1.19)"/><g class="cls-3"><path class="cls-4" d="M69.9,88.91l.13-.19a28.33,28.33,0,0,1,4.64-5.9,27.17,27.17,0,0,1,19.7-7.92A27.13,27.13,0,0,1,114,82.82a28.88,28.88,0,0,1,4.38,5.4l.19.25c1.42-1.07,2.83-2.26,4.25-3.52a34.93,34.93,0,0,0-5.22-6.41,32.07,32.07,0,0,0-23.25-9.42,32,32,0,0,0-23.31,9.42,35,35,0,0,0-5.54,7c1.42,1.19,2.9,2.32,4.38,3.39Z" transform="translate(-6.07 -1.19)"/><path class="cls-4" d="M69.9,88.91c-1.48-1.07-3-2.2-4.38-3.39a32.08,32.08,0,0,0,1.16,33.36A32.78,32.78,0,0,0,71.06,124a32.17,32.17,0,0,0,23.31,9.37A33.61,33.61,0,0,0,122,118.88a30.16,30.16,0,0,0,5.28-17.59A30.58,30.58,0,0,0,122.84,85c-1.42,1.26-2.83,2.45-4.25,3.52h-.06A26.9,26.9,0,0,1,122.2,102a25.37,25.37,0,0,1-4.51,14.89,25.78,25.78,0,0,1-3.67,4.28,27.12,27.12,0,0,1-19.65,7.91,27.16,27.16,0,0,1-19.7-7.91A25.32,25.32,0,0,1,71,116.93,24.83,24.83,0,0,1,66.55,102,25.81,25.81,0,0,1,69.9,88.91Z" transform="translate(-6.07 -1.19)"/></g><path class="cls-5" d="M66.55,102A24.83,24.83,0,0,0,71,116.93a25.32,25.32,0,0,0,3.67,4.28,27.16,27.16,0,0,0,19.7,7.91A27.12,27.12,0,0,0,114,121.21a25.78,25.78,0,0,0,3.67-4.28A25.37,25.37,0,0,0,122.2,102a26.9,26.9,0,0,0-3.67-13.57,41.39,41.39,0,0,1-24.67,7.67,40.9,40.9,0,0,1-24-7.23A25.81,25.81,0,0,0,66.55,102Z" transform="translate(-6.07 -1.19)"/></svg>