<svg height="511pt" viewBox="-4 1 511 511.99999" width="511pt" xmlns="http://www.w3.org/2000/svg"><path d="m312.90625 355.796875c0 33.546875-27.195312 60.746094-60.746094 60.746094-33.546875 0-60.746094-27.199219-60.746094-60.746094 0-33.550781 27.199219-60.746094 60.746094-60.746094 33.550782 0 60.746094 27.195313 60.746094 60.746094zm0 0" fill="#ffd884"/><path d="m234.292969 328.488281c-9.867188 9.871094-9.859375 25.871094.011719 35.734375 1.175781 1.175782 2.460937 2.230469 3.839843 3.148438l18.398438 12.261718c3.628906 2.421876 4.609375 7.324219 2.1875 10.953126-.285157.429687-.617188.832031-.980469 1.199218-3.125 3-8.0625 3-11.1875 0l-14.300781-14.292968-12.269531 12.269531 14.300781 14.300781c9.867187 9.863281 25.859375 9.863281 35.722656-.003906 9.867187-9.867188 9.863281-25.863282-.003906-35.726563-1.171875-1.171875-2.457031-2.226562-3.835938-3.144531l-18.355469-12.253906c-3.628906-2.433594-4.601562-7.347656-2.171874-10.980469.28125-.417969.601562-.8125.957031-1.167969 3.09375-3.089844 8.101562-3.089844 11.195312 0l14.300781 14.300782 12.226563-12.304688-14.300781-14.300781c-2.601563-2.578125-5.738282-4.550781-9.1875-5.78125v-26.953125c-5.75-.925782-11.609375-.925782-17.359375 0v26.953125c-3.449219 1.234375-6.585938 3.207031-9.1875 5.789062zm0 0" fill="#e5b78f"/><path d="m486.273438 225.628906.191406-43.390625-43.390625 43.390625h-43.195313c-9.691406 0-17.546875 7.855469-17.546875 17.546875v69.039063c0 9.691406 7.855469 17.546875 17.546875 17.546875h86.394532c9.691406 0 17.546874-7.855469 17.546874-17.546875v-69.039063c0-9.691406-7.855468-17.546875-17.546874-17.546875zm0 0" fill="#88d0ef"/><path d="m399.6875 364.472656h69.421875v147.527344h-69.421875zm0 0" fill="#dd527c"/><path d="m52.566406 364.472656h364.476563v147.527344h-364.476563zm0 0" fill="#ee8eb4"/><path d="m356.296875 78.101562v69.425782h69.421875l78.101562-78.101563-69.421874-69.425781zm0 0" fill="#eef1eb"/><g fill="#dd1c4b"><path d="m391.007812 78.101562h17.355469v17.355469h-17.355469zm0 0"/><path d="m417.042969 52.066406h17.355469v52.070313h-17.355469zm0 0"/><path d="m443.074219 60.746094h17.359375v17.355468h-17.359375zm0 0"/></g><path d="m69.921875 208.269531c0 14.378907-11.65625 26.035157-26.03125 26.035157-14.378906 0-26.035156-11.65625-26.035156-26.035157 0-14.375 11.65625-26.03125 26.035156-26.03125 14.375 0 26.03125 11.65625 26.03125 26.03125zm0 0" fill="#e5b78f"/><path d="m356.296875 407.863281h-17.355469v-86.777343c0-47.929688-38.855468-86.78125-86.78125-86.78125-47.925781 0-86.777344 38.851562-86.777344 86.78125v86.777343h-17.359374v-86.777343c0-57.515626 46.625-104.136719 104.136718-104.136719 57.511719 0 104.136719 46.621093 104.136719 104.136719zm0 0" fill="#d2d7d6"/><path d="m373.652344 425.21875c0 14.378906-11.65625 26.035156-26.035156 26.035156-14.378907 0-26.03125-11.65625-26.03125-26.035156 0-14.375 11.652343-26.03125 26.03125-26.03125 14.378906 0 26.035156 11.65625 26.035156 26.03125zm0 0" fill="#d2d7d6"/><path d="m182.738281 425.21875c0 14.378906-11.65625 26.035156-26.035156 26.035156s-26.035156-11.65625-26.035156-26.035156c0-14.375 11.65625-26.03125 26.035156-26.03125s26.035156 11.65625 26.035156 26.03125zm0 0" fill="#d2d7d6"/><path d="m172.316406 79.769531-73.632812 73.640625-98.183594-98.183594 55.226562-55.226562h36.820313zm0 0" fill="#d1e3ee"/><path d="m80.273438 98.175781 36.816406-36.816406 12.273437 12.273437-36.816406 36.816407zm0 0" fill="#345a84"/><path d="m49.589844 67.5 36.820312-36.816406 12.269532 12.273437-36.816407 36.816407zm0 0" fill="#345a84"/><path d="m235.28125 0h68.46875c9.851562 0 17.835938 7.984375 17.835938 17.832031v68.46875c0 9.851563-7.984376 17.835938-17.835938 17.835938h-68.46875c-9.847656 0-17.832031-7.984375-17.832031-17.835938v-68.46875c0-9.847656 7.984375-17.832031 17.832031-17.832031zm0 0" fill="#345a84"/><path d="m286.324219 43.390625h9.226562v-17.355469h-9.226562c-14.070313.011719-25.472657 11.414063-25.484375 25.484375v52.617188h17.355468v-26.035157h17.355469v-17.355468h-17.355469v-9.226563c.003907-4.488281 3.640626-8.125 8.128907-8.128906zm0 0" fill="#fff"/><path d="m174.058594 130.167969v69.425781l52.066406-34.710938zm0 0" fill="#dd1c4b"/><path d="m43.890625 234.304688c19.167969 0 34.710937 15.542968 34.710937 34.710937v34.710937h-69.421874v-34.710937c0-19.167969 15.539062-34.710937 34.710937-34.710937zm0 0" fill="#e5b78f"/><path d="m417.042969 251.660156h52.066406v17.355469h-52.066406zm0 0" fill="#345a84"/><path d="m417.042969 286.371094h52.066406v17.359375h-52.066406zm0 0" fill="#345a84"/></svg>