<?xml version="1.0" encoding="iso-8859-1"?>
<!-- Generator: Adobe Illustrator 19.0.0, SVG Export Plug-In . SVG Version: 6.00 Build 0)  -->
<svg version="1.1" id="Capa_1" xmlns="http://www.w3.org/2000/svg" xmlns:xlink="http://www.w3.org/1999/xlink" x="0px" y="0px"
	 viewBox="0 0 512 512" style="enable-background:new 0 0 512 512;" xml:space="preserve">
<path style="fill:#C1C1C1;" d="M512,492c0,4.143-3.358,7.5-7.5,7.5H7.5c-4.142,0-7.5-3.357-7.5-7.5s3.358-7.5,7.5-7.5h497
	C508.642,484.5,512,487.857,512,492z"/>
<g>
	<path style="fill:#7CC3AC;" d="M446.333,90v400c0,4.143-3.358,7.5-7.5,7.5s-7.5-3.357-7.5-7.5V90c0-4.143,3.358-7.5,7.5-7.5
		S446.333,85.857,446.333,90z"/>
	<path style="fill:#7CC3AC;" d="M512,73.167c0,40.409-32.758,73.167-73.167,73.167s-73.167-32.758-73.167-73.167
		S398.424,0,438.833,0S512,32.758,512,73.167z"/>
</g>
<path style="fill:#4A7273;" d="M447.333,73.167c0,4.143-3.358,7.5-7.5,7.5h-1c-4.142,0-7.5-3.357-7.5-7.5s3.358-7.5,7.5-7.5h1
	C443.975,65.667,447.333,69.024,447.333,73.167z M414.333,65.667h-1c-4.142,0-7.5,3.357-7.5,7.5s3.358,7.5,7.5,7.5h1
	c4.142,0,7.5-3.357,7.5-7.5S418.475,65.667,414.333,65.667z M464.333,65.667h-1c-4.142,0-7.5,3.357-7.5,7.5s3.358,7.5,7.5,7.5h1
	c4.142,0,7.5-3.357,7.5-7.5S468.475,65.667,464.333,65.667z"/>
<path style="fill:#61AE9F;" d="M512,73.167c0,40.409-32.758,73.167-73.167,73.167c-4.439,0-8.779-0.417-13-1.175
	C460.037,139.021,486,109.136,486,73.167S460.037,7.312,425.833,1.175c4.221-0.758,8.561-1.175,13-1.175
	C479.242,0,512,32.758,512,73.167z M438.833,472c-11.046,0-20,8.954-20,20s8.954,20,20,20s20-8.954,20-20S449.879,472,438.833,472z"
	/>
<g>
	<path style="fill:#FE5E47;" d="M263.5,280v210c0,4.143-3.358,7.5-7.5,7.5s-7.5-3.357-7.5-7.5V280c0-4.143,3.358-7.5,7.5-7.5
		S263.5,275.857,263.5,280z"/>
	<path style="fill:#FE5E47;" d="M329.167,223.167c0,40.409-32.758,73.167-73.167,73.167s-73.167-32.758-73.167-73.167
		S215.591,150,256,150S329.167,182.758,329.167,223.167z"/>
</g>
<path style="fill:#F53737;" d="M276,492c0,11.046-8.954,20-20,20s-20-8.954-20-20s8.954-20,20-20C267.046,472,276,480.954,276,492z
	 M256,150c-4.439,0-8.779,0.417-13,1.175c34.203,6.137,60.167,36.022,60.167,71.992S277.204,289.022,243,295.159
	c4.221,0.757,8.561,1.175,13,1.175c40.409,0,73.167-32.758,73.167-73.167S296.409,150,256,150z"/>
<path style="fill:#DB3131;" d="M288.5,208.167c0,4.143-3.358,7.5-7.5,7.5h-50c-4.142,0-7.5-3.357-7.5-7.5s3.358-7.5,7.5-7.5h50
	C285.142,200.667,288.5,204.024,288.5,208.167z M271,230.667h-30c-4.142,0-7.5,3.357-7.5,7.5s3.358,7.5,7.5,7.5h30
	c4.142,0,7.5-3.357,7.5-7.5S275.142,230.667,271,230.667z"/>
<path style="fill:#FFB05F;" d="M80.667,90v400c0,4.143-3.358,7.5-7.5,7.5s-7.5-3.357-7.5-7.5V90c0-4.143,3.358-7.5,7.5-7.5
	S80.667,85.857,80.667,90z"/>
<path style="fill:#FF904E;" d="M146.333,73.167c0,40.409-32.758,73.167-73.167,73.167S0,113.576,0,73.167S32.758,0,73.167,0
	S146.333,32.758,146.333,73.167z"/>
<path style="fill:#FF733D;" d="M93.167,492c0,11.046-8.954,20-20,20s-20-8.954-20-20s8.954-20,20-20
	C84.212,472,93.167,480.954,93.167,492z M73.167,0c-4.439,0-8.779,0.417-13,1.175c34.203,6.137,60.167,36.022,60.167,71.992
	s-25.963,65.855-60.167,71.992c4.221,0.757,8.561,1.175,13,1.175c40.409,0,73.167-32.758,73.167-73.167
	C146.333,32.758,113.576,0,73.167,0z"/>
<path style="fill:#F53737;" d="M105.667,58.167c0,4.143-3.358,7.5-7.5,7.5h-50c-4.142,0-7.5-3.357-7.5-7.5s3.358-7.5,7.5-7.5h50
	C102.309,50.667,105.667,54.024,105.667,58.167z M88.167,80.667h-30c-4.142,0-7.5,3.357-7.5,7.5s3.358,7.5,7.5,7.5h30
	c4.142,0,7.5-3.357,7.5-7.5S92.309,80.667,88.167,80.667z"/>
<g>
</g>
<g>
</g>
<g>
</g>
<g>
</g>
<g>
</g>
<g>
</g>
<g>
</g>
<g>
</g>
<g>
</g>
<g>
</g>
<g>
</g>
<g>
</g>
<g>
</g>
<g>
</g>
<g>
</g>
</svg>
